<?xml version='1.0' encoding='utf-8'?>
<svg xmlns="http://www.w3.org/2000/svg" width="120.21863mm" height="90.311111mm" viewBox="0 0 425.97152 320" id="svg4798" version="1.1"> <defs id="defs4800"> <filter style="color-interpolation-filters:sRGB" id="filter5583" x="-0.0212625" width="1.042525" y="-0.068040001" height="1.13608"> <feGaussianBlur stdDeviation="22.68" id="feGaussianBlur5585"/> </filter> </defs> <metadata id="metadata4803"> </metadata> <g id="layer1" transform="translate(270,-52.362206)"> <text style="font-style:normal;font-variant:normal;font-weight:normal;font-stretch:normal;line-height:0%;font-family:'open sans';-inkscape-font-specification:'open sans';text-align:start;letter-spacing:0px;word-spacing:0px;text-anchor:start;fill:#000000;fill-opacity:1;stroke:none;stroke-width:1px;stroke-linecap:butt;stroke-linejoin:miter;stroke-opacity:1" x="2400" y="492.36221" id="text5389"><tspan id="tspan5391" x="2400" y="492.36221" style="font-size:62.5px;line-height:1.25"> </tspan></text> <rect style="opacity:1;fill:#ffcc80;fill-opacity:1;fill-rule:evenodd;stroke:none;stroke-width:3;stroke-linecap:round;stroke-linejoin:round;stroke-miterlimit:4;stroke-dasharray:none;stroke-dashoffset:0;stroke-opacity:1" id="rect5587" width="425.19684" height="318.89764" x="-270" y="53.464554"/> <rect style="opacity:1;fill:#fff3e0;fill-opacity:1;fill-rule:evenodd;stroke:none;stroke-width:3;stroke-linecap:round;stroke-linejoin:round;stroke-miterlimit:4;stroke-dasharray:none;stroke-dashoffset:0;stroke-opacity:1" id="rect5375" width="425.9715" height="209.80518" x="-270" y="52.362206"/> <g id="g5773" transform="matrix(0.51994593,0,0,0.51994593,108.79158,116.88312)"> <path id="path5775" d="m 3200,-1187.6378 2320,0 160,-160 0,-160 -160,-160 -160,0 -80,80 0,-160 -240,-240 -480,0 -160,160 0,160 -80,-80 -320,0 -80,80 0,80 -80,-80 -320,0 -240,0 -80,80 -80,80 0,240 z" style="opacity:1;fill:#ffcc80;fill-opacity:1;fill-rule:evenodd;stroke:none;stroke-width:3;stroke-linecap:round;stroke-linejoin:round;stroke-miterlimit:4;stroke-dasharray:none;stroke-dashoffset:0;stroke-opacity:1;filter:url(#filter5583)" transform="matrix(0.06383328,0,0,0.06383328,-305.86643,188.813)"/> <path style="opacity:1;fill:#ffffff;fill-opacity:1;fill-rule:evenodd;stroke:none;stroke-width:3;stroke-linecap:round;stroke-linejoin:round;stroke-miterlimit:4;stroke-dasharray:none;stroke-dashoffset:0;stroke-opacity:1" d="m -99.684935,113.00218 148.093203,0 10.21333,-10.21332 0,-10.213325 -10.21333,-10.213327 -10.21332,0 -5.10666,5.10666 0,-10.21332 -15.31999,-15.319986 -30.639973,0 -10.213323,10.213326 0,10.21332 -5.106666,-5.10666 -20.426649,0 -5.106661,5.10666 0,5.10666 -5.106662,-5.10666 -20.42665,0 -15.319988,0 -5.106661,5.10666 -5.106665,5.106667 0,15.319985 z" id="path5777"/> </g> <circle style="opacity:1;fill:#ffcc80;fill-opacity:1;fill-rule:evenodd;stroke:none;stroke-width:3;stroke-linecap:round;stroke-linejoin:round;stroke-miterlimit:4;stroke-dasharray:none;stroke-dashoffset:0;stroke-opacity:1" id="path5379" cx="-199.49864" cy="147.3622" r="55.501358"/> <path style="opacity:1;fill:#a5d6a7;fill-opacity:1;fill-rule:evenodd;stroke:none;stroke-width:3;stroke-linecap:round;stroke-linejoin:round;stroke-miterlimit:4;stroke-dasharray:none;stroke-dashoffset:0;stroke-opacity:1" d="m -269.22534,262.16734 425.19685,0 0,110.19486 -425.19685,0 z" id="path5373"/> <path style="opacity:1;fill:#78909c;fill-opacity:1;fill-rule:evenodd;stroke:none;stroke-width:3;stroke-linecap:round;stroke-linejoin:round;stroke-miterlimit:4;stroke-dasharray:none;stroke-dashoffset:0;stroke-opacity:1" d="m -166.58532,277.12448 90.777845,95.14365 7.525608,0 -90.777843,-95.14365 z" id="path5377"/> <path style="opacity:1;fill:#546e7a;fill-opacity:1;fill-rule:evenodd;stroke:none;stroke-width:3;stroke-linecap:round;stroke-linejoin:round;stroke-miterlimit:4;stroke-dasharray:none;stroke-dashoffset:0;stroke-opacity:1" d="m -166.58532,277.03276 1.8814,-106.11342 c 0,0 1.17882,1.1163 1.8814,1.1163 0.70259,0 1.8814,-1.1163 1.8814,-1.1163 l 1.88141,106.11342 c 0,0 -2.4837,1.46363 -3.76281,1.46363 -1.27911,0 -3.7628,-1.46363 -3.7628,-1.46363 z" id="path5352"/> <path style="opacity:1;fill:#546e7a;fill-opacity:1;fill-rule:evenodd;stroke:none;stroke-width:3;stroke-linecap:round;stroke-linejoin:round;stroke-miterlimit:4;stroke-dasharray:none;stroke-dashoffset:0;stroke-opacity:1" d="m -149.00641,126.54512 c -0.18701,-0.17888 -0.60858,0.45543 -1.01112,1.71555 -10.79953,28.62363 -11.54224,33.08356 -12.05763,39.38737 a 3.762804,3.762804 0 0 0 -1.79997,0.12363 3.762804,3.762804 0 0 0 -2.58422,3.9955 c -1.68975,0.271 -2.94752,0.0361 -3.60877,-0.1914 l -1.11183,-0.38254 -1.11189,-0.38261 -8.51211,3.48782 -8.51218,3.48775 -8.51205,3.48775 -4.25603,1.74394 -4.25608,1.74388 c -2.61911,1.07316 -1.96507,1.5663 0.2889,0.8952 30.88167,-7.48536 34.1141,-9.24502 39.97891,-12.60082 a 3.762804,3.762804 0 0 0 4.50818,1.87763 3.762804,3.762804 0 0 0 1.44489,-0.86531 c 0.65891,1.08428 0.92257,2.01915 1.00494,2.59031 l 0.16786,1.16383 0.16785,1.16384 6.99238,5.9772 6.99238,5.97721 6.99238,5.9772 3.49618,2.9886 3.49619,2.9886 c 2.1515,1.83914 2.29129,1.03205 0.66429,-0.66606 -20.25778,-23.45266 -23.65353,-26.00273 -29.06427,-29.53089 a 3.762804,3.762804 0 0 0 0.0706,-2.501 3.762804,3.762804 0 0 0 -1.4415,-1.93663 c 0.6705,-1.22608 1.42734,-1.97115 1.91996,-2.33855 l 0.94265,-0.70295 0.94258,-0.70302 1.91492,-8.99746 1.91499,-8.99739 1.91492,-8.99733 0.95743,-4.49877 0.95749,-4.49869 c 0.25778,-1.21119 0.25426,-1.84226 0.10881,-1.98139 z" id="path5354"/> <path style="opacity:1;fill:#546e7a;fill-opacity:1;fill-rule:evenodd;stroke:none;stroke-width:3;stroke-linecap:round;stroke-linejoin:round;stroke-miterlimit:4;stroke-dasharray:none;stroke-dashoffset:0;stroke-opacity:1" d="M -5.9780314,262.16734 26.608806,205.72528 41.816,232.0649 85.265116,156.80882 144.6831,262.16734 Z" id="path5381"/> <path style="opacity:0.67900002;fill:#ffffff;fill-opacity:1;fill-rule:evenodd;stroke:none;stroke-width:3;stroke-linecap:round;stroke-linejoin:round;stroke-miterlimit:4;stroke-dasharray:none;stroke-dashoffset:0;stroke-opacity:1" d="m 70.085509,183.14845 15.051216,-26.33963 15.051215,26.33963 z" id="path5397"/> <path id="path5399" d="M 11.162275,231.42123 26.213491,205.0816 41.264707,231.42123 Z" style="opacity:0.67900002;fill:#ffffff;fill-opacity:1;fill-rule:evenodd;stroke:none;stroke-width:3;stroke-linecap:round;stroke-linejoin:round;stroke-miterlimit:4;stroke-dasharray:none;stroke-dashoffset:0;stroke-opacity:1"/> <path style="opacity:1;fill:#1b5e20;fill-opacity:1;fill-rule:evenodd;stroke:none;stroke-width:3;stroke-linecap:round;stroke-linejoin:round;stroke-miterlimit:4;stroke-dasharray:none;stroke-dashoffset:0;stroke-opacity:1" d="m -126.23879,277.21855 7.52561,-30.10243 7.52561,30.10243 z" id="path5401"/> <path style="opacity:1;fill:#78909c;fill-opacity:1;fill-rule:evenodd;stroke:none;stroke-width:3;stroke-linecap:round;stroke-linejoin:round;stroke-miterlimit:4;stroke-dasharray:none;stroke-dashoffset:0;stroke-opacity:1" d="m -62.271122,273.45575 18.81402,18.81402 -3.762804,3.7628 71.963824,76.32963 15.051216,0 3.762804,0 3.762804,0 -94.540648,-98.90645 z" id="path5429"/> <path id="path5403" d="m -47.219906,296.03257 7.525608,-30.10243 7.525608,30.10243 z" style="opacity:1;fill:#1b5e20;fill-opacity:1;fill-rule:evenodd;stroke:none;stroke-width:3;stroke-linecap:round;stroke-linejoin:round;stroke-miterlimit:4;stroke-dasharray:none;stroke-dashoffset:0;stroke-opacity:1"/> <path style="opacity:1;fill:#1b5e20;fill-opacity:1;fill-rule:evenodd;stroke:none;stroke-width:3;stroke-linecap:round;stroke-linejoin:round;stroke-miterlimit:4;stroke-dasharray:none;stroke-dashoffset:0;stroke-opacity:1" d="m -107.42477,269.69294 7.525608,-30.10243 7.525608,30.10243 z" id="path5405"/> <path style="opacity:1;fill:#78909c;fill-opacity:1;fill-rule:evenodd;stroke:none;stroke-width:3;stroke-linecap:round;stroke-linejoin:round;stroke-miterlimit:4;stroke-dasharray:none;stroke-dashoffset:0;stroke-opacity:1" d="m -126.23879,277.21855 90.777844,95.14365 15.051216,0 -90.77784,-95.14365 z" id="path5419"/> <path style="opacity:1;fill:#78909c;fill-opacity:1;fill-rule:evenodd;stroke:none;stroke-width:3;stroke-linecap:round;stroke-linejoin:round;stroke-miterlimit:4;stroke-dasharray:none;stroke-dashoffset:0;stroke-opacity:1" d="m -107.42477,269.69294 98.303452,102.66926 15.051216,0 -98.303452,-102.66926 z" id="path5423"/> <path id="path5407" d="m -96.136358,299.79538 7.525608,-30.10244 7.525608,30.10244 z" style="opacity:1;fill:#1b5e20;fill-opacity:1;fill-rule:evenodd;stroke:none;stroke-width:3;stroke-linecap:round;stroke-linejoin:round;stroke-miterlimit:4;stroke-dasharray:none;stroke-dashoffset:0;stroke-opacity:1"/> <path style="opacity:1;fill:#1b5e20;fill-opacity:1;fill-rule:evenodd;stroke:none;stroke-width:3;stroke-linecap:round;stroke-linejoin:round;stroke-miterlimit:4;stroke-dasharray:none;stroke-dashoffset:0;stroke-opacity:1" d="m -118.71318,307.32098 7.5256,-30.10243 7.52561,30.10243 z" id="path5409"/> <path style="opacity:1;fill:#1b5e20;fill-opacity:1;fill-rule:evenodd;stroke:none;stroke-width:3;stroke-linecap:round;stroke-linejoin:round;stroke-miterlimit:4;stroke-dasharray:none;stroke-dashoffset:0;stroke-opacity:1" d="m -62.271122,273.45575 7.525608,-30.10243 7.525608,30.10243 z" id="path5411"/> <path id="path5413" d="m -84.847946,280.98136 7.525608,-30.10244 7.525608,30.10244 z" style="opacity:1;fill:#1b5e20;fill-opacity:1;fill-rule:evenodd;stroke:none;stroke-width:3;stroke-linecap:round;stroke-linejoin:round;stroke-miterlimit:4;stroke-dasharray:none;stroke-dashoffset:0;stroke-opacity:1"/> <path style="opacity:1;fill:#78909c;fill-opacity:1;fill-rule:evenodd;stroke:none;stroke-width:3;stroke-linecap:round;stroke-linejoin:round;stroke-miterlimit:4;stroke-dasharray:none;stroke-dashoffset:0;stroke-opacity:1" d="M -82.960142,280.98136 5.929898,372.3622 H 17.21831 l -87.01504,-91.38084 z" id="path5427"/> <path style="opacity:1;fill:#1b5e20;fill-opacity:1;fill-rule:evenodd;stroke:none;stroke-width:3;stroke-linecap:round;stroke-linejoin:round;stroke-miterlimit:4;stroke-dasharray:none;stroke-dashoffset:0;stroke-opacity:1" d="m -73.559534,307.32098 7.525608,-30.10243 7.525608,30.10243 z" id="path5415"/> <path style="opacity:1;fill:#78909c;fill-opacity:1;fill-rule:evenodd;stroke:none;stroke-width:3;stroke-linecap:round;stroke-linejoin:round;stroke-miterlimit:4;stroke-dasharray:none;stroke-dashoffset:0;stroke-opacity:1" d="m -118.71318,307.32098 60.67541,65.04122 15.051216,0 -60.675416,-65.04122 z" id="path5417"/> <path style="opacity:1;fill:#78909c;fill-opacity:1;fill-rule:evenodd;stroke:none;stroke-width:3;stroke-linecap:round;stroke-linejoin:round;stroke-miterlimit:4;stroke-dasharray:none;stroke-dashoffset:0;stroke-opacity:1" d="m -5.829062,262.16734 105.82906,110.19486 55.000002,0 0.97151,-98.90645 -11.28841,-11.28841" id="path5383"/> <path style="opacity:1;fill:#78909c;fill-opacity:1;fill-rule:evenodd;stroke:none;stroke-width:3;stroke-linecap:round;stroke-linejoin:round;stroke-miterlimit:4;stroke-dasharray:none;stroke-dashoffset:0;stroke-opacity:1" d="m -92.36075,299.79538 h 11.275608 l 7.525608,7.5256 h 3.762804 L -9.121318,372.3622 H -20.40973 Z" id="path5425"/> <path style="opacity:1;fill:#01579b;fill-opacity:1;fill-rule:evenodd;stroke:none;stroke-width:3;stroke-linecap:round;stroke-linejoin:round;stroke-miterlimit:4;stroke-dasharray:none;stroke-dashoffset:0;stroke-opacity:1" d="m -257.91772,262.16734 c 0,0 21.19206,12.44671 27.22081,22.57682 10.97448,18.44042 4.38987,37.44177 12.49165,63.15342 6.33026,20.0896 20.1438,24.46462 20.1438,24.46462 H -180 c 0,0 -18.55897,-15.75376 -23.8938,-26.33962 -9.37363,-18.60001 -2.16547,-43.03873 -12.22225,-61.27842 -5.27506,-9.56722 -23.75942,-22.57682 -23.75942,-22.57682 z" id="path5462"/> <g id="g5763" transform="matrix(0.81568621,0,0,0.81568621,-0.42762147,31.015052)"> <path id="path5759" d="m 3200,-1187.6378 2320,0 160,-160 0,-160 -160,-160 -160,0 -80,80 0,-160 -240,-240 -480,0 -160,160 0,160 -80,-80 -320,0 -80,80 0,80 -80,-80 -320,0 -240,0 -80,80 -80,80 0,240 z" style="opacity:1;fill:#ffcc80;fill-opacity:1;fill-rule:evenodd;stroke:none;stroke-width:3;stroke-linecap:round;stroke-linejoin:round;stroke-miterlimit:4;stroke-dasharray:none;stroke-dashoffset:0;stroke-opacity:1;filter:url(#filter5583)" transform="matrix(0.06383328,0,0,0.06383328,-305.86643,188.813)"/> <path style="opacity:1;fill:#ffffff;fill-opacity:1;fill-rule:evenodd;stroke:none;stroke-width:3;stroke-linecap:round;stroke-linejoin:round;stroke-miterlimit:4;stroke-dasharray:none;stroke-dashoffset:0;stroke-opacity:1" d="m -99.684935,113.00218 148.093203,0 10.21333,-10.21332 0,-10.213325 -10.21333,-10.213327 -10.21332,0 -5.10666,5.10666 0,-10.21332 -15.31999,-15.319986 -30.639973,0 -10.213323,10.213326 0,10.21332 -5.106666,-5.10666 -20.426649,0 -5.106661,5.10666 0,5.10666 -5.106662,-5.10666 -20.42665,0 -15.319988,0 -5.106661,5.10666 -5.106665,5.106667 0,15.319985 z" id="path5761"/> </g> <g id="g5785" transform="matrix(0.81568621,0,0,0.81568621,22.416695,26.231914)"> <path transform="matrix(0.06383328,0,0,0.06383328,-211.1815,218.17302)" style="opacity:1;fill:#ffcc80;fill-opacity:1;fill-rule:evenodd;stroke:none;stroke-width:3;stroke-linecap:round;stroke-linejoin:round;stroke-miterlimit:4;stroke-dasharray:none;stroke-dashoffset:0;stroke-opacity:1;filter:url(#filter5583)" d="m 3200,-1187.6378 2320,0 160,-160 0,-160 -160,-160 -160,0 -80,80 0,-160 -240,-240 -480,0 -160,160 0,160 -80,-80 -320,0 -80,80 0,80 -80,-80 -320,0 -240,0 -80,80 -80,80 0,240 z" id="path5489"/> <path id="path5487" d="m -5,142.3622 148.0932,0 10.21333,-10.21332 0,-10.21332 -10.21333,-10.21332 -10.21332,0 -5.10666,5.10666 0,-10.21332 -15.31999,-15.319985 -30.63997,0 -10.213323,10.213325 0,10.21332 -5.106666,-5.10666 -20.426649,0 -5.106661,5.10666 0,5.10666 -5.106662,-5.10666 -20.42665,0 -15.319988,0 L -5,116.8289 l -5.106666,5.10666 0,15.31998 z" style="opacity:1;fill:#ffffff;fill-opacity:1;fill-rule:evenodd;stroke:none;stroke-width:3;stroke-linecap:round;stroke-linejoin:round;stroke-miterlimit:4;stroke-dasharray:none;stroke-dashoffset:0;stroke-opacity:1"/> </g> <g transform="matrix(0.63487603,0,0,0.63487603,-49.791174,99.83032)" id="g5767"> <path transform="matrix(0.06383328,0,0,0.06383328,-305.86643,188.813)" style="opacity:1;fill:#ffcc80;fill-opacity:1;fill-rule:evenodd;stroke:none;stroke-width:3;stroke-linecap:round;stroke-linejoin:round;stroke-miterlimit:4;stroke-dasharray:none;stroke-dashoffset:0;stroke-opacity:1;filter:url(#filter5583)" d="m 3200,-1187.6378 2320,0 160,-160 0,-160 -160,-160 -160,0 -80,80 0,-160 -240,-240 -480,0 -160,160 0,160 -80,-80 -320,0 -80,80 0,80 -80,-80 -320,0 -240,0 -80,80 -80,80 0,240 z" id="path5769"/> <path id="path5771" d="m -99.684935,113.00218 148.093203,0 10.21333,-10.21332 0,-10.213325 -10.21333,-10.213327 -10.21332,0 -5.10666,5.10666 0,-10.21332 -15.31999,-15.319986 -30.639973,0 -10.213323,10.213326 0,10.21332 -5.106666,-5.10666 -20.426649,0 -5.106661,5.10666 0,5.10666 -5.106662,-5.10666 -20.42665,0 -15.319988,0 -5.106661,5.10666 -5.106665,5.106667 0,15.319985 z" style="opacity:1;fill:#ffffff;fill-opacity:1;fill-rule:evenodd;stroke:none;stroke-width:3;stroke-linecap:round;stroke-linejoin:round;stroke-miterlimit:4;stroke-dasharray:none;stroke-dashoffset:0;stroke-opacity:1"/> </g> <g transform="matrix(0.30236519,0,0,0.30236519,22.240897,149.73835)" id="g5779"> <path transform="matrix(0.06383328,0,0,0.06383328,-305.86643,188.813)" style="opacity:1;fill:#ffcc80;fill-opacity:1;fill-rule:evenodd;stroke:none;stroke-width:3;stroke-linecap:round;stroke-linejoin:round;stroke-miterlimit:4;stroke-dasharray:none;stroke-dashoffset:0;stroke-opacity:1;filter:url(#filter5583)" d="m 3200,-1187.6378 2320,0 160,-160 0,-160 -160,-160 -160,0 -80,80 0,-160 -240,-240 -480,0 -160,160 0,160 -80,-80 -320,0 -80,80 0,80 -80,-80 -320,0 -240,0 -80,80 -80,80 0,240 z" id="path5781"/> <path id="path5783" d="m -99.684935,113.00218 148.093203,0 10.21333,-10.21332 0,-10.213325 -10.21333,-10.213327 -10.21332,0 -5.10666,5.10666 0,-10.21332 -15.31999,-15.319986 -30.639973,0 -10.213323,10.213326 0,10.21332 -5.106666,-5.10666 -20.426649,0 -5.106661,5.10666 0,5.10666 -5.106662,-5.10666 -20.42665,0 -15.319988,0 -5.106661,5.10666 -5.106665,5.106667 0,15.319985 z" style="opacity:1;fill:#ffffff;fill-opacity:1;fill-rule:evenodd;stroke:none;stroke-width:3;stroke-linecap:round;stroke-linejoin:round;stroke-miterlimit:4;stroke-dasharray:none;stroke-dashoffset:0;stroke-opacity:1"/> </g> </g> </svg>